PathFileType	4	(X/Y/Z)	C:/Users/opensim2020/Desktop/walking_exp_matlab/subject02_walking04_straight_03.trc																																																																																																																												
DataRate	CameraRate	NumFrames	NumMarkers	Units	OrigDataRate	OrigDataStartFrame	OrigNumFrames																																																																																																																								
100	100	4	42	mm	100	2344	222																																																																																																																								
Frame#	Time	LFHD			RFHD			LBHD			RBHD			C7			T10			CLAV			STRN			RBAK			LSHO			LUPA			LELB			LFRM			LWRA			LWRB			LFIN			RSHO			RUPA			RELB			RFRM			RWRA			RWRB			RFIN			LASI			RASI			LPSI			RPSI			LTHI			LKNE			LTIB			LANK			LHEE			LTOE			RTHI			RKNE			RTIB			RANK			RHEE			RTOE			*39			*40			*41		
		X1	Y1	Z1	X2	Y2	Z2	X3	Y3	Z3	X4	Y4	Z4	X5	Y5	Z5	X6	Y6	Z6	X7	Y7	Z7	X8	Y8	Z8	X9	Y9	Z9	X10	Y10	Z10	X11	Y11	Z11	X12	Y12	Z12	X13	Y13	Z13	X14	Y14	Z14	X15	Y15	Z15	X16	Y16	Z16	X17	Y17	Z17	X18	Y18	Z18	X19	Y19	Z19	X20	Y20	Z20	X21	Y21	Z21	X22	Y22	Z22	X23	Y23	Z23	X24	Y24	Z24	X25	Y25	Z25	X26	Y26	Z26	X27	Y27	Z27	X28	Y28	Z28	X29	Y29	Z29	X30	Y30	Z30	X31	Y31	Z31	X32	Y32	Z32	X33	Y33	Z33	X34	Y34	Z34	X35	Y35	Z35	X36	Y36	Z36	X37	Y37	Z37	X38	Y38	Z38	X39	Y39	Z39	X40	Y40	Z40	X41	Y41	Z41	X42	Y42	Z42
																																																																																																																															
139	1.38	284.0047	1730.0979	-1108.43835	266.92221	1710.49756	-965.77197	162.95201	1643.46179	-1133.8728	134.21318	1621.8988	-994.41766	106.35108	1505.84192	-1049.80396	60.21802	1227.98596	-1036.38416	249.79836	1441.42261	-1068.203	307.92316	1274.06445	-1052.67163	56.91957	1332.54309	-974.60889	169.19977	1472.92456	-1235.17529	126.22038	1272.96826	-1307.91125	100.32328	1134.99805	-1311.22949	82.01562	1005.33258	-1325.39343	113.05899	869.59949	-1299.29321	67.30772	883.31403	-1329.87878	68.49283	815.65259	-1331.48694	200.46533	1482.37683	-867.93353	209.93015	1295.6709	-772.3606	264.07156	1159.06152	-742.88318	337.79669	1061.04565	-731.22083	428.68466	965.35162	-758.46008	391.34067	942.47662	-721.80225	452.15982	905.4715	-722.21643	322.85046	991.49927	-1177.03442	312.15399	957.31561	-921.03259	104.00471	1012.25507	-1105.47473	97.6438	1003.25085	-989.62225	326.45996	685.27557	-1243.58972	346.35193	482.72589	-1212.85559	328.02383	288.72147	-1217.18311	364.05374	70.59088	-1181.62488	330.4173	41.55804	-1130.49036	519.52734	41.57615	-1186.08398	183.55708	661.18414	-848.60632	145.40996	457.87527	-860.49854	8.21693	327.88626	-857.51538	-113.05694	177.1154	-888.23407	-164.29073	150.67247	-948.87372	-27.12333	36.0623	-875.5614	165.66985	1785.18091	-1032.77747	2845.15381	1033.79321	-3360.26294	NaN	NaN	NaN
140	1.39	293.73413	1730.94714	-1110.52185	276.29443	1711.24316	-967.76154	172.01891	1645.30566	-1136.27734	142.83562	1623.73877	-996.84576	115.03411	1506.72791	-1052.1803	69.80392	1228.81287	-1038.77087	258.82669	1443.05603	-1070.75305	317.69226	1275.91345	-1055.60437	65.87595	1333.65991	-976.74329	177.94621	1474.59814	-1237.41614	138.45901	1274.00464	-1310.78687	114.51312	1135.724	-1314.49036	98.58847	1005.79395	-1328.68518	131.81651	870.58636	-1302.34399	86.0852	883.53705	-1333.35803	88.56602	815.85345	-1335.03381	209.37944	1483.8949	-870.68372	217.87141	1296.95361	-775.69507	270.35736	1159.79272	-746.78369	342.86041	1060.79126	-734.56982	432.62222	963.72662	-761.59967	394.57666	941.32068	-725.44568	454.88727	903.23291	-726.02448	332.58301	994.76465	-1180.56091	322.17004	958.79114	-926.15039	114.07203	1013.39545	-1107.96008	108.3455	1004.47992	-991.71191	336.10114	685.78503	-1245.94287	351.68326	482.83807	-1214.83325	330.01941	288.73901	-1216.99243	364.40964	70.45667	-1181.51221	330.11615	41.95193	-1130.63501	519.97797	41.06841	-1186.01331	197.41077	661.36505	-850.74652	163.7319	458.31097	-859.86548	23.56154	331.68484	-857.10413	-100.37186	184.0336	-888.84393	-151.07288	160.26796	-950.46802	-24.96781	36.71254	-876.47711	175.66739	1786.77319	-1035.00269	2845.71973	1033.86792	-3357.39087	NaN	NaN	NaN
141	1.4	303.42743	1731.81116	-1112.59204	285.70648	1712.0708	-969.82428	181.08633	1647.17261	-1138.60999	151.35945	1625.51172	-999.11322	123.74415	1507.56885	-1054.65271	79.21884	1229.729	-1041.25745	267.88959	1444.73779	-1073.21411	327.45258	1277.73682	-1058.36829	75.69379	1334.53845	-978.80328	186.67126	1476.4021	-1239.52441	150.63336	1275.35632	-1313.90308	128.79778	1136.84766	-1317.79846	115.55917	1006.53711	-1332.12683	151.13036	871.92609	-1305.49548	105.39956	883.86847	-1336.86047	109.30039	816.349	-1338.64795	218.08093	1485.48035	-873.31232	226.09145	1298.31799	-778.66284	276.54987	1160.35059	-750.63202	347.68359	1060.70178	-738.15845	435.99341	962.04279	-765.27881	397.7525	940.32983	-728.77838	457.73541	901.49103	-729.36578	342.06635	997.68231	-1183.98975	332.12897	960.53326	-930.89886	124.03244	1014.34338	-1110.25452	118.41769	1005.75519	-993.82751	344.70377	686.60406	-1248.06982	355.77945	482.65149	-1216.71118	331.11951	288.52844	-1216.66943	364.42599	70.40472	-1181.66443	330.4545	41.58885	-1130.46973	520.25751	40.70125	-1186.05859	211.39653	661.2088	-852.69568	181.87108	458.42783	-859.66638	40.07458	335.11917	-857.07318	-86.81803	190.49496	-889.53113	-137.49373	169.67285	-951.76123	-20.95671	38.27555	-878.28271	185.82396	1788.57751	-1037.11328	2845.24341	1033.71533	-3360.35547	NaN	NaN	NaN
142	1.41	313.04208	1732.69434	-1114.45557	294.94498	1712.61829	-971.98785	190.22124	1649.1427	-1140.82043	160.22302	1627.52832	-1001.51996	132.47057	1508.50256	-1057.17505	88.59623	1230.81348	-1043.74268	276.94724	1446.40466	-1075.52515	336.99591	1279.51953	-1060.97571	84.36166	1335.83533	-980.94574	195.38181	1478.29248	-1241.7511	162.68214	1276.67786	-1316.48022	143.09534	1137.93335	-1321.18262	132.79807	1007.50317	-1336.18774	170.90442	873.52869	-1308.72876	125.15683	884.64917	-1340.46948	130.58925	817.05988	-1342.2865	226.16811	1486.79248	-876.02795	233.71666	1299.4668	-781.78699	282.69	1161.271	-754.30548	352.27432	1060.30713	-741.47858	439.28012	960.34778	-768.62439	400.67249	939.32404	-731.94275	459.8837	899.27692	-732.64355	351.29044	1000.11078	-1187.22583	341.70859	962.25415	-935.18787	133.76714	1015.09357	-1112.6571	127.88638	1007.04816	-996.21088	352.21976	687.47473	-1250.16333	359.01483	482.4761	-1218.63159	331.74396	288.38232	-1216.9939	364.48322	70.23312	-1181.57458	330.35446	41.60462	-1130.54431	520.4093	40.45018	-1186.0365	225.35963	660.60962	-854.41455	200.12845	458.33099	-859.80054	57.5245	337.91837	-857.46454	-72.61644	196.80232	-890.42029	-123.94977	178.59514	-952.94635	-14.00707	42.30328	-879.4104	195.75856	1790.23499	-1039.11182	2845.75195	1033.85486	-3357.4231	NaN	NaN	NaN
